<svg xmlns="http://www.w3.org/2000/svg" viewBox="0 0 960 384" preserveAspectRatio="xMidYMid slice">
  <defs>
    <linearGradient id="sky" x1="0" y1="0" x2="1" y2="1">
      <stop offset="0%" stop-color="#8ec4dd"/>
      <stop offset="60%" stop-color="#567766"/>
      <stop offset="100%" stop-color="#19251f"/>
    </linearGradient>
  </defs>
  <rect width="960" height="384" fill="url(#sky)"/>
  <rect y="246" width="960" height="138" fill="#1a2320"/>
  <path d="M0 236h960v22H0Z" fill="#516268"/>
  <path d="M102 154h756v44H102Z" fill="#8f9b9f"/>
  <path d="M120 176h720v14H120Z" fill="#5f6a6f"/>
  <rect x="168" y="198" width="30" height="106" fill="#56625d"/>
  <rect x="346" y="198" width="30" height="106" fill="#56625d"/>
  <rect x="582" y="198" width="30" height="106" fill="#56625d"/>
  <rect x="754" y="198" width="30" height="106" fill="#56625d"/>
  <path d="M0 310c112-34 242-52 392-54 186-2 378 22 568 72v56H0Z" fill="#22372d"/>
  <path d="M0 336c140-30 312-46 528-44 166 2 310 16 432 44v48H0Z" fill="#12221b"/>
  <circle cx="788" cy="112" r="34" fill="#dcecf1" opacity="0.28"/>
  <rect y="320" width="960" height="64" fill="#06090c" opacity="0.94"/>
</svg>
