<svg xmlns="http://www.w3.org/2000/svg" viewBox="0 0 960 384" preserveAspectRatio="xMidYMid slice">
  <defs>
    <linearGradient id="sky" x1="0" y1="0" x2="1" y2="1">
      <stop offset="0%" stop-color="#7e8b89"/>
      <stop offset="58%" stop-color="#5c625e"/>
      <stop offset="100%" stop-color="#222623"/>
    </linearGradient>
  </defs>
  <rect width="960" height="384" fill="url(#sky)"/>
  <rect y="248" width="960" height="136" fill="#191b18"/>
  <path d="M0 300 150 276 306 294 470 260 654 282 804 268 960 292V384H0Z" fill="#0d0f0d" opacity="0.92"/>
  <rect x="86" y="166" width="190" height="74" fill="#85756b"/>
  <rect x="326" y="136" width="138" height="108" fill="#5e6765"/>
  <rect x="528" y="154" width="214" height="88" fill="#8a6f56"/>
  <rect x="778" y="124" width="86" height="120" fill="#505b58"/>
  <path d="M68 154h822v9H68Z" fill="#262b29"/>
  <path d="M120 104h690v10H120Z" fill="#444b49"/>
  <path d="M168 82h14v166h-14ZM314 82h14v166h-14ZM502 82h14v166h-14ZM690 82h14v166h-14ZM826 82h14v166h-14Z" fill="#363d3a"/>
  <path d="M0 322h960v62H0Z" fill="#050605" opacity="0.96"/>
</svg>
